<svg viewBox="0 0 1024 1024" version="1.1" xmlns="http://www.w3.org/2000/svg" width="200" height="200">
    <path d="M155.081 504.955v154.101h475.231v-246.565h176.971v186.913h-59.652v59.652h121.291v-308.204h-298.261v248.551h-147.143v-248.551h-61.641v248.551h-147.143v-248.551h-59.652v154.101z"></path>
    <path d="M155.081 504.955v154.101h475.231v-246.565h176.971v186.913h-59.652v59.652h121.291v-308.204h-298.261v248.551h-147.143v-248.551h-61.641v248.551h-147.143v-248.551h-59.652v154.101z"></path>
    <path d="M155.081 504.955v154.101h475.231v-246.565h176.971v186.913h-59.652v59.652h121.291v-308.204h-298.261v248.551h-147.143v-248.551h-61.641v248.551h-147.143v-248.551h-59.652v154.101z"></path>
    <path d="M155.081 504.955v154.101h475.231v-246.565h176.971v186.913h-59.652v59.652h121.291v-308.204h-298.261v248.551h-147.143v-248.551h-61.641v248.551h-147.143v-248.551h-59.652v154.101z"></path>
    <path d="M155.081 504.955v154.101h475.231v-246.565h176.971v186.913h-59.652v59.652h121.291v-308.204h-298.261v248.551h-147.143v-248.551h-61.641v248.551h-147.143v-248.551h-59.652v154.101z"></path>
</svg>